<mxfile host="app.diagrams.net" modified="2024-06-17T03:43:47.107Z" agent="Mozilla/5.0 (Macintosh; Intel Mac OS X 10_15_7) AppleWebKit/537.36 (KHTML, like Gecko) Chrome/125.0.0.0 Safari/537.36" version="24.5.4" etag="pVWtI1N5yH4vmSq6wHf1" type="github">
  <diagram name="Page-1" id="ycU9kNLRSjNMuz9eJaBV">
    <mxGraphModel>
      <root>
        <mxCell id="0" />
        <mxCell id="1" parent="0" />
      </root>
    </mxGraphModel>
  </diagram>
</mxfile>
